<svg xmlns="http://www.w3.org/2000/svg" xmlns:xlink="http://www.w3.org/1999/xlink" xml:space="preserve" version="1.1" style="shape-rendering:geometricPrecision;text-rendering:geometricPrecision;image-rendering:optimizeQuality;" viewBox="0 0 846.66 1058.325" x="0px" y="0px" fill-rule="evenodd" clip-rule="evenodd"><defs><style type="text/css">
   
    .fil0 {fill:black}
   
  </style></defs><g><path class="fil0" d="M152.62 574.54c0,0 368.03,0 418.47,0 50.44,0 90.14,-30.36 90.14,-91.07 0,-60.72 -53.71,-90.14 -91.54,-90.14 -37.83,0 -355.18,81.5 -408.89,102.52 -53.71,21.01 -77.76,77.76 -8.18,78.69zm585.96 86.69l0 169.53 -67.25 0 0 -169.53 -496 0 0 169.53 -67.25 0 0 -169.53 -88.27 0 0 -47.64 807.04 0 0 47.64 -88.27 0zm-548.62 -645.31c61.9,0 112.08,50.18 112.08,112.09 0,61.9 -50.18,112.09 -112.08,112.09 -61.91,0 -112.09,-50.19 -112.09,-112.09 0,-8.39 0.92,-16.55 2.67,-24.41 8.25,28.66 34.67,49.63 65.98,49.63 37.92,0 68.66,-30.74 68.66,-68.66 0,-31.31 -20.97,-57.73 -49.63,-65.98 7.86,-1.74 16.02,-2.67 24.41,-2.67zm552.42 375.3c35.67,0 64.57,28.91 64.57,64.57 0,35.66 -28.9,64.57 -64.57,64.57 -35.66,0 -64.57,-28.91 -64.57,-64.57 0,-35.66 28.91,-64.57 64.57,-64.57z"/></g><text x="0" y="861.66" fill="#000000" font-size="5px" font-weight="bold" font-family="'Helvetica Neue', Helvetica, Arial-Unicode, Arial, Sans-serif">Created by ZakaUddin</text><text x="0" y="866.66" fill="#000000" font-size="5px" font-weight="bold" font-family="'Helvetica Neue', Helvetica, Arial-Unicode, Arial, Sans-serif">from the Noun Project</text></svg>