<svg xmlns="http://www.w3.org/2000/svg" data-name="Layer 1" viewBox="0 0 64 80" x="0px" y="0px"><path d="M57,29H52V23h5a1,1,0,0,0,.54-1.84l-25-16a1,1,0,0,0-1.08,0l-25,16A1,1,0,0,0,7,23h5V47H9a1,1,0,0,0-1,1v3H7a1,1,0,0,0-1,1v6a1,1,0,0,0,1,1H57a1,1,0,0,0,1-1V52a1,1,0,0,0-1-1H56V48a1,1,0,0,0-1-1H52V45h5a1,1,0,0,0,1-1V30A1,1,0,0,0,57,29Zm-7,0H46V23h4ZM39,45h5v2H36V23h8v6H39a1,1,0,0,0-1,1V44A1,1,0,0,0,39,45Zm8,0v2H46V45ZM28,23V47H20V23Zm2,0h4V47H30ZM13.54,19H23.59l.7.71A1,1,0,0,0,25,20h3V18H25.41l-.7-.71A1,1,0,0,0,24,17H22.41l1-1H26V14H23a1,1,0,0,0-.71.29L19.59,17H16.67L32,7.19,42.64,14H42a1,1,0,0,0-.89.55L40.38,16H38v2h3a1,1,0,0,0,.89-.55L42.62,16h3.15l7.81,5H10.42ZM14,23h4V47H14ZM8,53h6V51H10V49H47v2H16v2H47v4H8Zm48,4H49V53h7Zm-2-6H49V49h5Zm-4-4H49V45h1Zm6-4H40V31H56Z"/><polygon points="45.71 40.71 48 38.41 50.29 40.71 51.71 39.29 49.41 37 51.71 34.71 50.29 33.29 48 35.59 45.71 33.29 44.29 34.71 46.59 37 44.29 39.29 45.71 40.71"/><path d="M32,9a5,5,0,1,0,5,5A5,5,0,0,0,32,9Zm0,8a3,3,0,1,1,3-3A3,3,0,0,1,32,17Z"/><text x="0" y="79" fill="#000000" font-size="5px" font-weight="bold" font-family="'Helvetica Neue', Helvetica, Arial-Unicode, Arial, Sans-serif">Created by Studio 365</text><text x="0" y="84" fill="#000000" font-size="5px" font-weight="bold" font-family="'Helvetica Neue', Helvetica, Arial-Unicode, Arial, Sans-serif">from the Noun Project</text></svg>