<svg xmlns="http://www.w3.org/2000/svg" xmlns:xlink="http://www.w3.org/1999/xlink" version="1.1" x="0px" y="0px" viewBox="0 0 100 125" enable-background="new 0 0 100 100" xml:space="preserve"><g><g><path d="M91.035,8.251l-1.389,17.853c-0.121,1.58-1.449,2.778-3.009,2.778c-0.071,0-0.151,0-0.231-0.01    c-1.661-0.121-2.908-1.58-2.778-3.24l0.543-6.904L57.554,58.741c-0.825,1.238-2.415,1.691-3.764,1.077l-5.364-2.446L37.265,75.205    c-0.674,1.067-1.932,1.61-3.17,1.359l-4.207-0.876L18.537,88.962h66.752c1.671,0,3.019,1.358,3.019,3.019    c0,1.67-1.348,3.019-3.019,3.019H11.975c-1.661,0-3.019-1.349-3.019-3.019V18.677c0-1.67,1.358-3.019,3.019-3.019    c1.67,0,3.019,1.349,3.019,3.019v65.142l11.462-13.405c0.714-0.845,1.822-1.218,2.909-0.996l3.895,0.805l11.442-18.296    c0.805-1.288,2.435-1.771,3.814-1.147l5.435,2.476l24.948-37.517l-5.716,2.727c-1.51,0.714-3.311,0.08-4.025-1.419    c-0.725-1.51-0.091-3.311,1.419-4.025l16.152-7.729c0.966-0.463,2.113-0.372,3.009,0.242C90.623,6.138,91.116,7.175,91.035,8.251z    "/></g></g><text x="0" y="115" fill="#000000" font-size="5px" font-weight="bold" font-family="'Helvetica Neue', Helvetica, Arial-Unicode, Arial, Sans-serif">Created by Garrett Knoll</text><text x="0" y="120" fill="#000000" font-size="5px" font-weight="bold" font-family="'Helvetica Neue', Helvetica, Arial-Unicode, Arial, Sans-serif">from the Noun Project</text></svg>